<svg id="Layer_1" data-name="Layer 1" xmlns="http://www.w3.org/2000/svg" viewBox="0 0 512 512">
  <path d="M434.89,322.12h.43a41,41,0,0,0,40.95-41V115.4a63.83,63.83,0,0,0-63.83-63.83h-151a63.83,63.83,0,0,0-63.83,63.83v26.39L130.77,235c-8.34,11.6-8.34,30.41,0,42l52.77,78.61A30.36,30.36,0,0,0,208.73,369H216" style="fill: none;stroke: #fff;stroke-linecap: round;stroke-miterlimit: 10;stroke-width: 57px"/>
  <path d="M288.44,143H295a26,26,0,0,1,20.36,9.82L380.83,235c8.34,11.6,8.34,30.41,0,42l-66.52,92.53v27.13a63.83,63.83,0,0,1-63.83,63.83h-151a63.83,63.83,0,0,1-63.83-63.83V230.89a41,41,0,0,1,41-40.95h0" style="fill: none;stroke: #fff;stroke-linecap: round;stroke-miterlimit: 10;stroke-width: 57px"/>
  <line x1="239.74" y1="238.92" x2="272.26" y2="273.08" style="fill: none;stroke: #fff;stroke-linecap: round;stroke-miterlimit: 10;stroke-width: 54px"/>
</svg>
